<?xml version="1.0" standalone="no"?>
<!DOCTYPE svg PUBLIC "-//W3C//DTD SVG 20010904//EN"
 "http://www.w3.org/TR/2001/REC-SVG-20010904/DTD/svg10.dtd">
<svg version="1.0" xmlns="http://www.w3.org/2000/svg"
 width="536.000000pt" height="536.000000pt" viewBox="0 0 536.000000 536.000000"
 preserveAspectRatio="xMidYMid meet">
<metadata>
Created by potrace 1.14, written by Peter Selinger 2001-2017
</metadata>
<g transform="translate(0.000000,536.000000) scale(0.100000,-0.100000)"
fill="#000000" stroke="none">
<path d="M2498 5355 c-1 -1 -37 -5 -78 -9 -41 -3 -84 -8 -95 -10 -11 -2 -40
-7 -65 -10 -251 -39 -539 -130 -770 -246 -106 -53 -263 -145 -311 -182 -20
-15 -41 -28 -47 -28 -6 0 -12 -3 -14 -7 -1 -5 -21 -21 -43 -38 -56 -41 -55
-41 -104 -82 -153 -130 -257 -234 -361 -362 -19 -24 -41 -49 -47 -56 -7 -8
-13 -18 -13 -24 0 -6 -5 -11 -10 -11 -6 0 -14 -8 -17 -17 -4 -10 -17 -29 -30
-43 -13 -14 -23 -30 -23 -37 0 -7 -4 -13 -10 -13 -5 0 -10 -6 -10 -13 0 -8 -9
-22 -20 -32 -11 -10 -20 -22 -20 -26 0 -5 -16 -33 -35 -63 -19 -30 -35 -58
-35 -61 0 -3 -11 -23 -25 -45 -14 -22 -25 -46 -25 -55 0 -8 -4 -15 -10 -15 -5
0 -10 -9 -10 -20 0 -11 -4 -20 -10 -20 -5 0 -10 -4 -10 -9 0 -5 -8 -26 -17
-47 -9 -22 -17 -41 -18 -44 -1 -3 -10 -23 -19 -44 -10 -22 -19 -48 -21 -57 -2
-9 -11 -31 -19 -48 -9 -17 -16 -32 -16 -33 1 -3 0 -10 -23 -88 -36 -122 -34
-115 -42 -155 -3 -16 -8 -38 -11 -47 -6 -20 -12 -51 -20 -97 -3 -18 -8 -43
-10 -55 -2 -11 -7 -45 -10 -75 -3 -30 -8 -64 -11 -75 -3 -12 -6 -113 -8 -226
-4 -307 24 -529 101 -794 76 -259 213 -553 353 -756 38 -54 133 -181 161 -214
106 -124 203 -223 289 -296 29 -25 63 -54 76 -65 45 -40 65 -55 74 -55 5 0 11
-7 15 -15 3 -8 10 -15 16 -15 6 0 18 -6 25 -13 30 -26 44 -37 50 -37 3 0 15
-9 27 -20 12 -11 28 -20 35 -20 7 0 13 -4 13 -10 0 -5 5 -10 12 -10 6 0 26
-11 43 -25 18 -13 35 -21 39 -18 3 4 6 2 6 -4 0 -5 20 -18 45 -29 25 -10 45
-21 45 -25 0 -7 39 -22 53 -20 4 1 7 -4 7 -10 0 -5 4 -8 9 -5 5 4 11 3 13 -2
1 -4 32 -20 68 -35 36 -16 74 -32 85 -37 23 -11 136 -53 148 -56 4 -1 9 -3 12
-4 3 -1 8 -3 13 -4 4 -1 40 -12 81 -25 71 -22 82 -25 134 -36 12 -2 36 -8 52
-12 17 -4 32 -7 35 -8 4 -1 35 -7 120 -22 200 -36 641 -38 818 -3 26 5 88 16
137 25 127 24 308 78 460 138 71 27 135 54 140 58 6 4 60 32 120 63 103 53
322 194 390 250 17 14 45 38 64 53 129 106 263 240 361 363 19 24 41 49 48 56
6 7 12 17 12 23 0 5 6 14 13 18 8 4 22 22 33 38 10 17 21 32 24 35 13 11 138
217 151 247 8 18 17 33 20 33 7 0 26 46 27 64 0 5 4 12 9 15 8 6 58 109 58
120 0 3 8 23 18 44 10 21 20 45 22 55 2 9 11 35 20 56 9 22 18 47 20 55 2 9
13 45 24 81 24 78 54 203 67 279 3 18 7 43 10 55 2 11 6 41 9 66 3 25 8 61 11
80 12 78 11 440 -1 557 -36 338 -134 660 -291 963 -65 124 -210 352 -259 404
-14 15 -25 29 -25 32 0 4 -15 22 -100 118 -81 91 -197 202 -285 271 -21 17
-45 38 -54 48 -8 9 -21 17 -28 17 -7 0 -13 4 -13 9 0 5 -15 18 -32 30 -18 11
-42 26 -53 33 -11 7 -22 15 -25 18 -9 9 -89 60 -95 60 -2 0 -13 7 -22 15 -10
8 -22 16 -28 16 -5 1 -22 10 -37 20 -14 10 -29 19 -32 19 -4 0 -25 12 -49 27
-23 14 -48 26 -54 26 -7 0 -13 4 -13 9 0 5 -4 6 -10 3 -5 -3 -10 -3 -10 2 0 4
-21 17 -48 27 -26 10 -67 28 -92 39 -24 10 -49 20 -55 22 -5 1 -23 8 -40 14
-16 7 -34 14 -40 15 -5 2 -17 5 -25 8 -25 10 -157 48 -179 53 -12 3 -31 7 -43
10 -13 2 -36 8 -53 12 -16 4 -32 7 -35 8 -3 1 -25 5 -50 9 -25 5 -54 10 -65
12 -11 2 -44 7 -74 10 -30 3 -64 8 -75 11 -23 5 -452 13 -458 8z"/>
</g>
</svg>
